<svg width="741" height="741" xmlns="http://www.w3.org/2000/svg" xmlns:xlink="http://www.w3.org/1999/xlink"><defs><path d="M219.9 36.5C230 22.2 243.8 10.7 260 3.6c0 0 8.3-2.9 12.9-2.9 14.2 0 26.8 10.6 26.8 24.8 0 1.8-1.1 7.4-1.1 7.4-5.2 16.7-14.9 31.4-27.5 42.7" id="a"/><path d="M163 323.1c86.2-47.5 142.5-112.5 164-210.5-33.4-51.7-97.5-85.7-163.7-85.7h-.6C96.5 26.9 33.8 61.1.3 112.8 19.4 211.4 79 274.5 163 323.1z" id="b"/><path d="M106.1 36.5C96 22.2 82.2 10.7 66 3.6c0 0-8.3-2.9-12.9-2.9-14.2 0-26.8 10.6-26.8 24.8 0 1.8 1.1 7.4 1.1 7.4 5.2 16.7 14.9 31.4 27.5 42.7" id="c"/><path d="M107.5 36.5C97.4 22.2 83.6 10.7 67.4 3.6c0 0-8.3-2.9-12.9-2.9-14.2 0-26.8 10.6-26.8 24.8 0 1.8 1.1 7.4 1.1 7.4C34 49.6 43.7 64.3 56.3 75.6" id="d"/><path d="M327.2 112.9C293.8 61.2 231 27 164.8 27 98 27 34.2 60.9.8 112.7 21.2 210.3 87 282.1 164.5 323.1c84-48.6 143.6-111.7 162.7-210.2z" id="e"/><path d="M221.4 36.5c10.1-14.3 23.9-25.8 40.1-32.9 0 0 8.3-2.9 12.9-2.9 14.2 0 26.8 10.6 26.8 24.8 0 1.8-1.1 7.4-1.1 7.4-5.2 16.7-14.9 31.4-27.5 42.7" id="f"/><path d="M106.3 35.8C96.2 21.5 82.4 10 66.2 2.9c0 0-8.3-2.9-12.9-2.9-14.2 0-26.8 10.6-26.8 24.8 0 1.8 1.1 7.4 1.1 7.4 5.2 16.7 14.9 31.4 27.5 42.7" id="g"/><path d="M220.1 35.8C230.2 21.5 244 10 260.2 2.9c0 0 8.3-2.9 12.9-2.9 14.2 0 26.8 10.6 26.8 24.8 0 1.8-1.1 7.4-1.1 7.4-5.2 16.7-14.9 31.4-27.5 42.7" id="h"/><path d="M163.2 322.4c84-48.6 143.6-111.7 162.7-210.2-33.4-51.7-96.2-85.9-162.4-85.9h-.6C96.7 26.3 34 60.5.5 112.2c19.2 98.5 78.7 161.6 162.7 210.2z" id="i"/></defs><g fill="none" fill-rule="evenodd"><circle cx="370.5" cy="370.5" r="370.5"/><g fill="#f2f2f2"><path d="M506.2 604.3c-48-22.1-93.3-53.8-130.1-91l25.6-25c29.3 29.6 66.1 57.1 104.5 76.8v39.2zM236.1 604.3c48-22.1 93.3-53.8 130.1-91l-25.6-25c-29.3 29.6-66.1 57.1-104.5 76.8v39.2zM371.1 506.4l24.5-26.3c-6.6-6.5-15.7-10.4-25.7-10.4h2.7c-10 0-19.1 4-25.7 10.4l24.5 26.3h-.3z"/></g><g transform="translate(344 215)"><use fill="#f2f2f2" xlink:href="#a"/><path stroke="#f8f8f8" stroke-width="4" d="M218.266 35.346c10.42-14.753 24.566-26.406 40.931-33.578l.143-.056.388-.132A84.84 84.84 0 0 1 264.197.22c1.147-.314 2.26-.59 3.323-.819 2.094-.451 3.903-.702 5.38-.702 15.66 0 28.8 11.805 28.8 26.8 0 .796-.151 2.055-.419 3.739a132.241 132.241 0 0 1-.719 4.047l-.052.209c-5.228 16.79-15.001 31.87-28.075 43.594l-1.233 1.106-54.047-41.275 1.111-1.574z"/></g><g transform="translate(344 215)"><use fill="#f2f2f2" xlink:href="#b"/><path stroke="#f8f8f8" stroke-width="4" d="M161.998 324.831C69.7 271.431 16.26 205.705-1.663 113.181l-.154-.792.439-.677C32.863 58.868 96.528 24.9 162.7 24.9h.6c66.566 0 131.45 34.094 165.38 86.615l.452.7-.178.814c-20.812 94.862-74.439 161.926-164.989 211.823l-.989.545-.978-.566z"/></g><path d="M506.6 415.1c25.7 0 46.5-20.3 47.5-45.7v-.7c0-42.5-20.3-74.5-47.7-102.7h.3c-27.4 28.2-47.7 60.3-47.7 102.7v.7c1 25.4 21.8 45.7 47.5 45.7h.1zM557 319c1.3 5 5.9 8.7 11.3 8.7 6.5 0 11.7-5.3 11.7-11.7 0-3.1-1.2-6-3.3-8.1L557 319z" fill="#f8f8f8"/><path d="m506.8 391.4 28.3-30.4c-7.7-7.5-18.2-12.1-29.7-12.1h3.2c-11.6 0-22 4.6-29.7 12.1l28.3 30.4h-.4z" fill="#f2f2f2"/><path d="M456 319c-1.3 5-5.9 8.7-11.3 8.7-6.5 0-11.7-5.3-11.7-11.7 0-3.1 1.2-6 3.3-8.1L456 319z" fill="#f8f8f8"/><g transform="translate(344 215)"><use fill="#f2f2f2" xlink:href="#c"/><path stroke="#f8f8f8" stroke-width="4" d="M108.845 36.92 54.798 78.195l-1.233-1.106C40.49 65.365 30.718 50.285 25.49 33.495l-.052-.21a132.23 132.23 0 0 1-.719-4.047c-.268-1.683-.419-2.942-.419-3.738 0-14.995 13.14-26.8 28.8-26.8 1.477 0 3.286.25 5.38.702 1.062.229 2.176.505 3.323.819a84.84 84.84 0 0 1 4.857 1.49l.143.057c16.365 7.172 30.51 18.825 40.93 33.578l1.112 1.574z"/></g><g><g transform="translate(70 215)"><use fill="#f2f2f2" xlink:href="#d"/><path stroke="#f8f8f8" stroke-width="4" d="M110.245 36.92 56.198 78.195l-1.233-1.106C41.89 65.365 32.118 50.285 26.89 33.495l-.052-.21a132.23 132.23 0 0 1-.719-4.047c-.268-1.683-.419-2.942-.419-3.738 0-14.995 13.14-26.8 28.8-26.8 1.477 0 3.286.25 5.38.702 1.062.229 2.176.505 3.323.819a84.84 84.84 0 0 1 4.857 1.49l.143.057c16.365 7.172 30.51 18.825 40.93 33.578l1.112 1.574z"/></g><g transform="translate(70 215)"><use fill="#f2f2f2" xlink:href="#e"/><path stroke="#f8f8f8" stroke-width="4" d="M329.163 113.28c-17.925 92.441-71.379 158.16-163.661 211.551l-.959.555-.978-.518C79.06 280.162 18.089 205.19-1.158 113.109l-.168-.803.445-.69C33.091 58.93 97.716 25 164.8 25c66.208 0 129.959 33.998 164.08 86.815l.437.676-.154.79z"/></g><path d="M234 415.1c25.7 0 46.5-20.3 47.5-45.7v-.7c0-42.5-20.3-74.5-47.7-102.7h.3c-27.4 28.2-47.7 60.3-47.7 102.7v.7c1 25.4 21.8 45.7 47.5 45.7h.1zM183.5 319c-1.3 5-5.9 8.7-11.3 8.7-6.5 0-11.7-5.3-11.7-11.7 0-3.1 1.2-6 3.3-8.1l19.7 11.1z" fill="#f8f8f8"/><path d="m234.3 391.4 28.3-30.4c-7.7-7.5-18.2-12.1-29.7-12.1h3.2c-11.6 0-22 4.6-29.7 12.1l28.3 30.4h-.4z" fill="#f2f2f2"/><path d="M284.5 319c1.3 5 5.9 8.7 11.3 8.7 6.5 0 11.7-5.3 11.7-11.7 0-3.1-1.2-6-3.3-8.1L284.5 319z" fill="#f8f8f8"/><g transform="translate(70 215)"><use fill="#f2f2f2" xlink:href="#f"/><path stroke="#f8f8f8" stroke-width="4" d="M219.766 35.346c10.42-14.753 24.566-26.406 40.931-33.578l.143-.056.388-.132A84.84 84.84 0 0 1 265.697.22c1.147-.314 2.26-.59 3.323-.819 2.094-.451 3.903-.702 5.38-.702 15.66 0 28.8 11.805 28.8 26.8 0 .796-.151 2.055-.419 3.739a132.241 132.241 0 0 1-.719 4.047l-.052.209c-5.228 16.79-15.001 31.87-28.075 43.594l-1.233 1.106-54.047-41.275 1.111-1.574z"/></g></g><g><g transform="translate(208 133)"><use fill="#f2f2f2" xlink:href="#g"/><path stroke="#f8f8f8" stroke-width="4" d="M109.045 36.22 54.998 77.495l-1.233-1.106C40.69 64.665 30.918 49.585 25.69 32.795l-.052-.21a132.23 132.23 0 0 1-.719-4.047c-.268-1.683-.419-2.942-.419-3.738C24.5 9.805 37.64-2 53.3-2c1.477 0 3.286.25 5.38.702 1.062.229 2.176.505 3.323.819a84.84 84.84 0 0 1 4.857 1.49l.143.057c16.365 7.172 30.51 18.825 40.93 33.578l1.112 1.574z"/></g><g transform="translate(208 133)"><use fill="#f2f2f2" xlink:href="#h"/><path stroke="#f8f8f8" stroke-width="4" d="M218.466 34.646c10.42-14.753 24.566-26.406 40.931-33.578l.143-.056.388-.132a84.84 84.84 0 0 1 4.469-1.359c1.147-.314 2.26-.59 3.323-.819 2.094-.451 3.903-.702 5.38-.702 15.66 0 28.8 11.805 28.8 26.8 0 .796-.151 2.055-.419 3.739a132.241 132.241 0 0 1-.719 4.047l-.052.209c-5.228 16.79-15.001 31.87-28.075 43.594l-1.233 1.106-54.047-41.275 1.111-1.574z"/></g><g transform="translate(208 133)"><use fill="#f2f2f2" xlink:href="#i"/><path stroke="#f8f8f8" stroke-width="4" d="M162.198 324.131C69.992 270.783 16.565 205.07-1.463 112.583l-.155-.793.44-.678C33.063 58.268 96.728 24.3 162.9 24.3h.6c66.208 0 129.959 33.998 164.08 86.815l.437.676-.154.79c-17.925 92.44-71.379 158.158-163.661 211.55l-1.002.58-1.002-.58z"/></g><path d="M370.8 332.4c25.7 0 46.5-20.3 47.5-45.7v-.7c0-42.5-20.3-74.5-47.7-102.7h.3c-27.4 28.2-47.7 60.3-47.7 102.7v.7c1 25.4 21.8 45.7 47.5 45.7h.1zM320.2 236.3c-1.3 5-5.9 8.7-11.3 8.7-6.5 0-11.7-5.3-11.7-11.7 0-3.1 1.2-6 3.3-8.1l19.7 11.1zM421.3 236.3c1.3 5 5.9 8.7 11.3 8.7 6.5 0 11.7-5.3 11.7-11.7 0-3.1-1.2-6-3.3-8.1l-19.7 11.1z" fill="#f8f8f8"/><path d="m371 308.8 28.3-30.4c-7.7-7.5-18.2-12.1-29.7-12.1h3.2c-11.6 0-22 4.6-29.7 12.1l28.3 30.4h-.4z" fill="#f2f2f2"/></g></g></svg>