<?xml version="1.0" standalone="no"?>
<!DOCTYPE svg PUBLIC "-//W3C//DTD SVG 20010904//EN"
 "http://www.w3.org/TR/2001/REC-SVG-20010904/DTD/svg10.dtd">
<svg version="1.0" xmlns="http://www.w3.org/2000/svg"
 width="741.000000pt" height="741.000000pt" viewBox="0 0 741.000000 741.000000"
 preserveAspectRatio="xMidYMid meet">
<metadata>
Created by potrace 1.14, written by Peter Selinger 2001-2017
</metadata>
<g transform="translate(0.000000,741.000000) scale(0.100000,-0.100000)"
fill="#000000" stroke="none">
<path d="M2530 6111 c-161 -49 -250 -196 -215 -351 13 -62 73 -191 121 -261
19 -28 34 -55 34 -59 0 -4 -21 -25 -47 -46 -101 -82 -242 -232 -325 -345 -25
-33 -32 -36 -135 -57 -120 -25 -137 -29 -161 -36 -12 -4 -35 14 -76 60 -32 35
-83 84 -115 107 -31 23 -58 44 -61 47 -10 11 -106 66 -145 83 -22 10 -69 23
-105 31 -54 11 -75 11 -124 -1 -188 -43 -278 -207 -216 -391 27 -79 70 -164
125 -246 l19 -28 -55 -46 c-157 -134 -378 -389 -379 -438 0 -12 11 -66 25
-120 14 -54 27 -106 29 -114 49 -190 200 -529 327 -732 213 -339 487 -639 794
-866 39 -29 75 -56 81 -61 67 -53 398 -254 419 -254 22 0 287 169 450 287 213
153 489 410 635 589 34 42 65 77 67 77 3 0 17 -8 31 -19 15 -10 62 -39 105
-65 75 -44 79 -45 105 -31 67 39 120 70 151 91 38 26 30 31 113 -71 185 -229
485 -491 783 -686 102 -67 122 -79 209 -130 l79 -47 135 80 c156 93 292 184
412 276 47 37 87 69 90 72 3 3 36 32 75 65 191 164 384 382 519 585 69 103
156 254 156 268 0 5 7 15 15 22 8 7 15 20 15 30 0 10 6 23 14 29 8 7 17 23 20
36 3 13 19 52 35 87 49 110 124 318 115 318 -4 0 -2 6 3 13 6 6 16 35 22 62 7
28 15 57 17 65 2 8 11 46 20 83 l16 68 -36 54 c-79 120 -242 294 -354 380 -28
21 -48 43 -45 49 4 6 21 34 38 61 113 183 143 320 95 432 -46 107 -175 183
-295 174 -131 -10 -304 -108 -450 -256 l-80 -81 -70 17 c-38 10 -100 23 -138
29 -65 11 -69 14 -99 58 -17 26 -38 54 -47 63 -9 9 -35 38 -58 65 -71 84 -129
139 -257 245 -4 4 6 28 23 53 44 63 108 200 125 266 37 144 -21 272 -152 336
-165 81 -401 -9 -615 -235 l-67 -71 -48 11 c-26 6 -55 13 -64 15 -10 2 -28 6
-40 9 -142 33 -479 51 -613 32 -27 -4 -68 -10 -90 -13 -33 -4 -108 -20 -252
-51 -13 -3 -23 -1 -23 4 0 13 -105 121 -165 169 -156 126 -335 188 -445 155z"/>
<path d="M3605 2691 c-54 -20 -121 -60 -128 -77 -3 -5 25 -42 62 -81 36 -38
90 -96 120 -128 l54 -57 69 73 c135 144 168 182 168 190 0 15 -92 69 -144 84
-66 20 -140 18 -201 -4z"/>
<path d="M3340 2464 c-204 -206 -548 -463 -848 -634 l-131 -74 0 -193 c0 -106
3 -193 6 -193 12 0 330 168 408 215 218 132 464 308 615 440 74 65 137 123
203 186 l69 65 -122 120 c-66 65 -126 120 -133 121 -7 1 -37 -23 -67 -53z"/>
<path d="M3883 2397 l-122 -122 47 -45 c136 -128 192 -179 237 -215 28 -22 52
-43 55 -46 11 -13 258 -197 315 -234 33 -22 62 -42 65 -45 3 -3 19 -13 35 -23
17 -10 80 -47 140 -84 130 -78 395 -217 401 -210 4 4 8 314 5 368 -1 11 -48
43 -123 85 -128 72 -356 221 -461 301 -34 26 -66 51 -72 55 -44 33 -254 215
-310 270 -38 37 -74 68 -80 67 -5 0 -65 -55 -132 -122z"/>
</g>
</svg>
